<?xml version="1.0" encoding="UTF-8"?>
<svg xmlns="http://www.w3.org/2000/svg" xmlns:xlink="http://www.w3.org/1999/xlink" width="374pt" height="404pt" viewBox="0 0 374 404" version="1.1">
<g id="surface1">
<path style=" stroke:none;fill-rule:nonzero;fill:rgb(13.699341%,12.199402%,12.5%);fill-opacity:1;" d="M 159.949219 108.257813 C 161.34375 106.730469 161.839844 104.933594 160.902344 103.121094 C 159.09375 99.558594 155.75 99.023438 151.796875 100.746094 C 146.28125 103.152344 143.308594 108.019531 142.730469 114.953125 L 142.554688 117.085938 L 153.460938 112.324219 C 156.40625 111.039063 158.628906 109.699219 159.949219 108.257813 Z M 228.5625 79.59375 C 227.082031 84.71875 227.324219 89.585938 229.320313 94.160156 C 232.058594 100.441406 237.082031 102.855469 243.859375 99.898438 C 247.792969 98.183594 250.386719 94.738281 251.480469 91.230469 C 253.234375 85.742188 253 80.421875 250.765625 75.296875 C 249.457031 72.304688 247.503906 70.191406 244.878906 69.058594 C 242.246094 67.929688 239.492188 68.007813 236.679688 69.234375 C 232.726563 70.960938 230.046875 74.480469 228.5625 79.59375 Z M 292.894531 78.761719 C 296.289063 77.277344 298.015625 73.765625 297.921875 70.5 L 297.53125 55.058594 C 297.496094 53.152344 297.289063 51.710938 296.882813 50.777344 C 296.210938 49.230469 294.972656 48.210938 293.222656 47.710938 C 291.476563 47.214844 289.65625 47.390625 287.78125 48.210938 C 283.925781 49.890625 281.324219 53.589844 279.90625 59.167969 C 278.484375 64.757813 278.828125 69.992188 280.953125 74.859375 C 282.871094 79.261719 286.003906 81.769531 290.191406 79.941406 Z M 373.402344 72.601563 L 373.601563 237.847656 L 373.558594 245.253906 C 373.617188 249.066406 373.625 253.945313 373.375 257.082031 C 373.148438 259.964844 372.710938 278.203125 370.832031 287.433594 C 367.613281 303.640625 357.84375 314.417969 345.355469 319.867188 C 337.773438 323.175781 330.765625 323.398438 324.335938 320.53125 C 317.910156 317.660156 313.753906 312.445313 311.867188 304.875 C 310.554688 299.597656 310.730469 294.070313 312.394531 288.289063 C 314.058594 282.511719 316.882813 277.480469 320.871094 273.203125 C 325.472656 268.300781 332.898438 263.609375 343.15625 259.136719 L 349.953125 256.171875 L 357.1875 253.507813 L 357.152344 252.355469 L 357.164063 67.726563 C 354.457031 70.546875 351.714844 72.28125 348.941406 73.492188 C 344.28125 75.527344 339.972656 74.90625 336.015625 73.902344 C 335.832031 74.535156 335.570313 74.878906 335.222656 75.488281 C 333.847656 77.921875 331.914063 80.523438 328.214844 82.136719 L 318.605469 86.328125 C 315.03125 87.886719 311.828125 86.707031 308.925781 84.515625 L 308.480469 84.175781 L 308.273438 84.699219 C 306.59375 88.984375 304.855469 90.8125 301.304688 92.992188 L 292.828125 96.9375 C 287.664063 99.191406 281.949219 98.648438 277.347656 96.480469 C 274.539063 95.15625 271.253906 92.300781 269.199219 89.601563 C 268.613281 93.621094 267.460938 97.832031 265.75 101.117188 C 264.101563 104.195313 262.113281 107.234375 259.789063 109.128906 C 257.453125 111.03125 253.84375 113.347656 248.898438 115.503906 C 240.792969 119.039063 235.125 118.929688 231.730469 118.28125 C 231.402344 118.21875 231.078125 118.148438 230.757813 118.074219 C 230.585938 118.644531 230.34375 119.203125 230.035156 119.753906 C 228.675781 122.191406 226.097656 124.328125 222.089844 126.078125 L 200.882813 135.332031 C 197.921875 136.621094 195.316406 137.078125 193.023438 136.804688 C 191.46875 138.460938 189.257813 139.941406 186.3125 141.226563 L 163.289063 151.273438 C 157.589844 153.761719 152.484375 154.855469 147.945313 154.644531 C 146.445313 157.417969 143.726563 159.632813 139.730469 161.375 L 114.375 172.4375 C 109.691406 174.480469 105.648438 175.070313 102.246094 174.214844 C 98.84375 173.355469 96.34375 171.09375 94.746094 167.425781 C 93.71875 165.074219 93.164063 161.222656 93.085938 155.871094 L 94.332031 41.101563 L 87.367188 60.84375 C 85.730469 65.59375 83.507813 68.582031 80.703125 69.804688 C 77.042969 71.402344 73.578125 69.929688 70.304688 65.386719 L 64.453125 57.808594 L 64.410156 318.390625 L 64.367188 325.792969 C 64.421875 329.609375 64.429688 334.488281 64.179688 337.625 C 63.953125 340.507813 63.710938 343.308594 63.527344 345.394531 C 63.246094 350.554688 61.816406 358.746094 59.9375 367.972656 C 56.71875 384.183594 47.519531 394.960938 35.027344 400.410156 C 27.445313 403.71875 20.4375 403.941406 14.007813 401.074219 C 7.582031 398.203125 3.425781 392.984375 1.539063 385.417969 C 0.226563 380.140625 0.402344 374.613281 2.066406 368.835938 C 3.730469 363.054688 6.554688 358.023438 10.542969 353.746094 C 15.144531 348.84375 22.570313 344.152344 32.828125 339.679688 L 39.625 336.710938 L 45.726563 334.050781 L 45.691406 332.898438 L 45.132813 36.226563 C 44.941406 29.371094 46.835938 25.074219 50.816406 23.335938 C 53.351563 22.230469 55.703125 22.167969 57.882813 23.148438 C 60.058594 24.128906 62.289063 26.40625 65.144531 29.984375 L 76.339844 43.703125 L 88.023438 14.898438 C 90.601563 8.578125 93.835938 4.566406 97.730469 2.867188 C 100.449219 1.683594 103.105469 1.503906 105.703125 2.332031 C 108.300781 3.160156 110.113281 4.75 111.136719 7.097656 C 111.789063 8.585938 112.132813 10.371094 112.179688 12.445313 L 112.269531 16.921875 L 112.304688 154 L 131.695313 145.539063 C 130.242188 143.550781 128.933594 141.226563 127.769531 138.554688 C 123.332031 128.390625 122.949219 118.15625 126.613281 107.785156 C 130.273438 97.421875 136.804688 90.234375 146.222656 86.125 C 153.121094 83.117188 159.320313 82.550781 164.894531 84.269531 C 170.449219 85.980469 174.464844 89.652344 176.972656 95.402344 C 179.996094 102.335938 179.398438 108.574219 175.265625 114.300781 C 173.035156 117.464844 168.796875 120.503906 162.328125 123.324219 L 144.890625 130.9375 L 145.398438 132.105469 C 147.640625 137.242188 152.648438 137.675781 158.960938 134.917969 L 183.125 124.375 C 183.65625 124.144531 184.171875 123.9375 184.664063 123.757813 L 184.628906 122.785156 L 184.546875 17.1875 L 184.484375 14.710938 C 184.335938 8.226563 186.6875 4.210938 191.339844 2.179688 C 193.226563 1.355469 195.054688 1.296875 196.90625 1.972656 C 198.757813 2.648438 200.011719 3.816406 200.75 5.515625 C 201.351563 6.886719 201.714844 8.660156 201.792969 10.871094 L 201.859375 13.339844 L 201.90625 117.519531 L 218.125 110.441406 C 216.335938 108.324219 214.796875 105.800781 213.519531 102.867188 C 209.492188 93.640625 209.332031 84.214844 213.046875 74.542969 C 216.765625 64.867188 223.15625 58.078125 232.230469 54.121094 C 239.253906 51.054688 245.945313 50.78125 252.351563 53.234375 C 256.632813 54.871094 260.148438 57.476563 262.902344 61.066406 C 263.226563 59.085938 263.699219 57.085938 264.3125 55.070313 C 267.339844 45.132813 272.683594 38.539063 280.324219 35.207031 C 285.960938 32.746094 290.320313 32.878906 295.386719 35.386719 L 298.175781 37.132813 L 298.148438 15.96875 C 297.960938 8.234375 299.6875 3.496094 304.289063 1.488281 C 306.234375 0.640625 308.136719 0.550781 310.023438 1.195313 C 311.902344 1.84375 313.21875 3.054688 314 4.839844 C 314.613281 6.253906 314.976563 8.011719 315.074219 10.140625 L 315.058594 12.421875 L 314.972656 67.398438 L 324.234375 63.605469 C 325.019531 63.261719 325.761719 62.980469 326.464844 62.757813 C 325.671875 60.304688 325.496094 56.65625 325.363281 51.8125 L 325.328125 30.339844 L 325.527344 28.113281 C 325.457031 22.054688 327.414063 18.316406 331.964844 16.328125 C 333.949219 15.464844 335.03125 15.378906 336.914063 16.0625 C 338.796875 16.753906 340.164063 17.785156 341.011719 19.734375 C 341.585938 21.050781 341.929688 23.433594 342.039063 26.886719 L 342.503906 48.28125 C 342.617188 51.359375 342.816406 53.292969 343.109375 54.082031 C 343.9375 56.359375 345.824219 56.859375 348.757813 55.578125 C 350.835938 54.671875 352.691406 53.132813 354.324219 50.964844 C 355.960938 48.796875 356.734375 46.816406 356.648438 45.019531 L 356.601563 16.578125 L 356.445313 14.378906 C 356.335938 8.335938 358.019531 4.308594 362.625 2.300781 C 364.609375 1.433594 366.550781 1.355469 368.445313 2.0625 C 370.339844 2.769531 371.703125 4.074219 372.53125 5.976563 C 373.105469 7.289063 373.429688 8.953125 373.503906 10.964844 L 373.492188 13.152344 L 373.402344 72.601563 "/>
</g>
</svg>
