<?xml version="1.0" encoding="utf-8"?>
<!-- Generator: Adobe Illustrator 22.1.0, SVG Export Plug-In . SVG Version: 6.00 Build 0)  -->
<svg version="1.1" id="Layer_1" xmlns="http://www.w3.org/2000/svg" xmlns:xlink="http://www.w3.org/1999/xlink" x="0px" y="0px"
	 viewBox="0 0 512 512" style="enable-background:new 0 0 512 512;" xml:space="preserve">
<path d="M255.9,0.2h-64v64h64V0.2z M0,64.2v64h64v-64H0z M128,0.2H64v64h64V0.2z M192,256.1v64h64v-64H192z M0,192.1v64h64v-64H0z
	 M383.9,0.2h-64v64h64V0.2z M511.9,0.2h-64v64h64V0.2z M128,256.1H64v64h64V256.1z M511.8,448v-64h-64v64H511.8z M511.8,320v-64h-64
	v64H511.8z M383.9,512h64v-64h-64V512z M511.9,192.1v-64h-64v64H511.9z M128,512h64v-64h-64V512z M0,512h64v-64H0V512z M255.9,512
	h64v-64h-64V512z M0,320.1v64h64v-64H0z M319.9,128.2v-64h-64v64H319.9z M255.9,256.2h64v-64h-64V256.2z M191.9,384.2v64h64v-64
	H191.9z M319.9,320.2h64v-64h-64V320.2z M319.9,192.2h64v-64h-64V192.2z M319.9,384.1v64h64v-64H319.9z M64,384v64h64v-64H64z
	 M192,128.1v-64h-64v64H192z M383.9,384h64v-64h-64V384z M255.9,192.1v-64h-64v64H255.9z M383.9,64.2v64h64v-64H383.9z M255.9,320.1
	v64h64v-64H255.9z M191.9,192.1H128v64h64L191.9,192.1z M383.8,256.1h64v-64h-64V256.1z M128,128.1H64v64h64V128.1z M128,320.1v64
	h64v-64H128z"/>
</svg>
