<?xml version="1.0" encoding="utf-8"?>
<!-- Generator: Adobe Illustrator 23.0.1, SVG Export Plug-In . SVG Version: 6.00 Build 0)  -->
<svg version="1.1" id="Layer_1" xmlns="http://www.w3.org/2000/svg" xmlns:xlink="http://www.w3.org/1999/xlink" x="0px" y="0px"
	 viewBox="0 0 512 512" style="enable-background:new 0 0 512 512;" xml:space="preserve">
<style type="text/css">
	.st0{fill-rule:evenodd;clip-rule:evenodd;fill:#1B1B1B;}
</style>
<path class="st0" d="M346.8,191.1l-12.7,50.5c-2.1,8.2-10,14.4-18.5,14.4H282v183.3c0,9.2-7.5,16.7-16.8,16.7H215
	c-9.2,0-16.8-7.5-16.8-16.7V256h-16.8c-9.2,0-16.8-7.5-16.8-16.7v-50c0-9.2,7.5-16.7,16.8-16.7h16.8V131c0-36.4,26.4-75,75.4-75
	h50.3c4.6,0,7.5,3.7,7.5,8.3V131c0,4.6-2.9,8.3-7.5,8.3H282v33.3h50.3c4.8,0,9.1,2,11.9,5.6C347,181.8,348,186.5,346.8,191.1z
	 M274.1,189.3c-0.2,0-0.3,0.1-0.5,0.1c-4.6,0-8.4-3.7-8.4-8.3v-42.7c0-0.7,0.1-1.5,0.3-2.2c1.3-7,7-13.6,16.5-13.6h32.7v-50h-41.1
	C235.1,72.7,215,102,215,131v50c0,4.6-3.8,8.3-8.4,8.3h-25.1v50h25.1c4.6,0,8.4,3.7,8.4,8.3v191.7h50.3V247.7c0-4.6,3.8-8.3,8.4-8.3
	h41.9c0.8,0,2.1-1,2.3-1.8l12.1-48.2H274.1z"/>
</svg>
