<?xml version="1.0" encoding="utf-8"?>
<!-- Generator: Adobe Illustrator 22.0.1, SVG Export Plug-In . SVG Version: 6.00 Build 0)  -->
<svg version="1.1" id="Layer_1" xmlns="http://www.w3.org/2000/svg" xmlns:xlink="http://www.w3.org/1999/xlink" x="0px" y="0px"
	 viewBox="0 0 1000 1000" style="enable-background:new 0 0 1000 1000;" xml:space="preserve">
<style type="text/css">
	.st0{fill:#EC1C24;}
</style>
<g>
	<g>
		<path class="st0" d="M310.7,575.8l37.5-8.2l47.6,2.3l-13.4-13.1l26.6-18.8L383,679.4l103.3-212.2L310.7,575.8z M600.7,533.6
			l52.3,1.3l46.9-81.1l-26.7-0.9L600.7,533.6z M747.7,535l32.5-8.9l36.6,3.6L805,522l29.7-16l-41.4,119.4L900,436.3L747.7,535z
			 M528.5,444.1L451.1,592l171.3-5.1L490,567.6l97.7-140.2l-113.3-12.6L528.5,444.1z M599,680.8l106-111.5l58.8,63.5l-27.4-104
			l76-62.6L728.9,491l18.9-91.6L599,680.8z M688.7,436.4l20.5,0.6l23.6-41.1L688.7,436.4z M625.3,407.9l-89.4,142.4l99.4,16.1
			l-62.7-34.9l128.7-139.1l-215.7-10.3L625.3,407.9z M404.6,320.3L99.9,540.7l180.4-106.4L260.6,532l104.1-66.9l-2.7,58.1
			l86.2-117.8l-126.1,45.7L404.6,320.3z"/>
	</g>
</g>
</svg>
