<?xml version="1.0" encoding="utf-8"?>
<!-- Generator: Adobe Illustrator 23.0.1, SVG Export Plug-In . SVG Version: 6.00 Build 0)  -->
<svg version="1.1" id="Layer_1" xmlns="http://www.w3.org/2000/svg" xmlns:xlink="http://www.w3.org/1999/xlink" x="0px" y="0px"
	 viewBox="0 0 512 512" style="enable-background:new 0 0 512 512;" xml:space="preserve">
<style type="text/css">
	.st0{fill-rule:evenodd;clip-rule:evenodd;fill:#1B1B1B;}
</style>
<path class="st0" d="M322.8,113.8c21.6,0,44.9,8.5,58.7,22.5c17.1-3.3,33.2-9.2,47.7-17.4c-5.6,16.8-17.5,30.8-33.1,39.7
	c15.2-1.8,29.7-5.6,43.2-11.3c-10.1,14.4-22.8,27.1-37.5,37.2c0.1,3.1,0.2,6.2,0.2,9.3c0,95-74.3,204.5-212.6,204.5
	c-45.9,0-83.4-12-116.7-32.4c5.9,0.7,11.9,1,17.9,1c35.3,0,67.7-11.5,93.5-30.8c-32.9-0.6-60.7-21.4-70.3-49.9
	c4.6,0.8,9.3,1.3,14.2,1.3c6.8,0,13.5-0.9,19.8-2.5c-34.4-6.6-59.1-35.8-59.1-70.6c0-0.3,0-0.6,0-0.9c10.1,5.4,21.7,8.6,34.1,9
	c-20.2-12.9-33.5-34.9-33.5-59.8c0-13.2,3.7-25.5,10.2-36.1c37.1,43.4,91.3,72.2,153.8,75.2c-1.3-5.2-2-10.8-2-16.4
	C251.3,145.7,281.2,113.8,322.8,113.8 M439.3,147.3L439.3,147.3 M322.8,97c-48.7,0-87,37.7-88.1,86.2
	c-47.9-6.9-90.9-30.4-122.6-67.5c-3.2-3.7-7.8-5.8-12.7-5.8c-0.4,0-0.9,0-1.3,0.1c-5.3,0.4-10.1,3.4-12.9,7.9
	c-8.3,13.5-12.7,29-12.7,44.9c0,12.7,2.8,25,8,36.2c-0.2,0.1-0.3,0.2-0.5,0.3c-5,3-8.1,8.5-8.1,14.3v0.9c0,24.7,10.3,47.4,27.3,63.6
	c-2.3,4.1-2.8,9-1.3,13.5c7.2,21.6,22.5,39.1,42.1,49.8c-15.6,5.8-32.2,8.8-49.4,8.8c-5.5,0-10.9-0.3-15.9-0.9
	c-0.7-0.1-1.3-0.1-2-0.1c-7,0-13.4,4.5-15.7,11.3c-2.6,7.4,0.4,15.7,7.1,19.8c38.2,23.4,79.2,34.8,125.4,34.8
	c143.5,0,229.3-112.5,229.3-221.2c0-0.3,0-0.6,0-0.9c13-10.1,24.4-21.9,33.9-35.4c2.2-2.8,3.4-6.3,3.4-10.2c0-8.2-5.8-15-13.6-16.4
	c0.9-2.2,1.8-4.4,2.5-6.6c2.2-6.6,0.1-13.8-5.2-18.2c-3.1-2.5-6.8-3.8-10.6-3.8c-2.8,0-5.6,0.7-8.2,2.2
	c-10.8,6.1-22.5,10.8-34.8,13.8C369.5,105,346,97,322.8,97L322.8,97z"/>
</svg>
